<?xml version="1.0" standalone="no"?>
<!DOCTYPE svg PUBLIC "-//W3C//DTD SVG 20010904//EN"
 "http://www.w3.org/TR/2001/REC-SVG-20010904/DTD/svg10.dtd">
<svg version="1.0" xmlns="http://www.w3.org/2000/svg"
 width="1408.000000pt" height="768.000000pt" viewBox="0 0 1408.000000 768.000000"
 preserveAspectRatio="xMidYMid meet">

<g transform="translate(0.000000,768.000000) scale(0.100000,-0.100000)"
fill="#000000" stroke="none">
<path d="M8785 5913 c-73 -17 -100 -28 -152 -63 -69 -46 -136 -134 -155 -204
-11 -42 -10 -53 12 -118 29 -83 87 -166 139 -201 41 -27 151 -77 225 -102 26
-9 70 -30 97 -47 45 -27 52 -29 84 -18 56 19 140 103 177 178 32 64 33 72 33
182 0 107 -2 119 -29 170 -41 80 -86 131 -147 167 -85 50 -205 74 -284 56z"/>
<path d="M4873 5654 c-3 -8 2 -31 10 -52 9 -20 58 -140 110 -267 218 -531 403
-979 422 -1020 7 -16 40 -95 73 -175 33 -80 92 -221 131 -315 40 -93 99 -237
133 -320 33 -82 68 -168 78 -190 21 -48 134 -321 312 -760 156 -385 165 -403
183 -384 7 8 68 122 135 254 68 132 158 305 200 385 42 80 119 226 170 325
176 342 194 375 210 375 17 0 20 -6 205 -360 76 -146 151 -290 167 -320 38
-69 238 -455 298 -574 25 -49 51 -91 57 -94 14 -4 16 0 69 138 33 86 102 253
261 635 30 72 68 165 84 207 15 43 38 99 50 125 37 84 47 106 74 178 21 56
161 391 220 530 41 95 96 227 113 270 32 82 91 223 111 268 37 82 171 416 171
426 0 7 -27 11 -67 11 -81 0 -181 20 -243 49 -54 25 -54 25 -100 -92 -29 -73
-135 -325 -283 -672 -14 -33 -40 -96 -57 -140 -17 -44 -50 -123 -72 -175 -22
-52 -46 -108 -53 -125 -102 -243 -115 -279 -110 -298 4 -14 3 -18 -3 -9 -6 8
-32 -43 -82 -160 -40 -95 -80 -190 -89 -210 -8 -21 -22 -39 -29 -40 -9 -2 -37
41 -77 117 -136 262 -238 441 -261 458 -23 18 -35 45 -14 32 6 -4 5 4 -1 19
-7 14 -16 23 -20 20 -5 -3 -6 1 -3 9 3 8 -2 21 -10 30 -8 8 -12 18 -8 21 3 4
0 5 -8 2 -14 -5 -62 79 -244 427 -37 70 -42 76 -54 60 -8 -10 -54 -94 -104
-188 -150 -281 -161 -299 -181 -314 -22 -15 -50 -77 -42 -91 3 -5 0 -12 -6
-16 -8 -5 -10 -2 -5 7 4 8 0 5 -9 -6 -20 -25 -92 -155 -250 -453 -38 -73 -75
-132 -82 -132 -15 0 -40 48 -82 152 -51 127 -97 219 -106 211 -4 -5 -5 -2 -1
5 10 17 -3 54 -16 46 -7 -4 -8 -2 -4 5 10 16 -3 53 -16 45 -7 -4 -8 -2 -4 5 7
11 -8 49 -121 321 -24 58 -58 139 -74 180 -17 41 -39 93 -49 115 -87 195 -470
1123 -470 1140 0 7 10 15 23 19 39 10 133 6 149 -6 8 -7 39 -71 68 -143 146
-357 491 -1171 519 -1221 5 -11 18 -40 28 -66 9 -25 21 -44 25 -42 4 3 5 -1 2
-9 -3 -8 2 -17 10 -20 9 -4 12 -14 9 -25 -2 -11 0 -23 6 -26 7 -4 8 -1 5 8 -3
9 -4 16 -1 16 3 0 10 -14 16 -30 6 -18 6 -28 1 -25 -14 9 -12 -6 5 -35 9 -15
15 -19 15 -10 0 8 8 2 16 -13 9 -16 13 -35 10 -43 -4 -9 -2 -12 5 -8 6 4 14 1
18 -5 5 -7 12 -1 19 16 11 26 11 27 -3 9 -8 -11 -15 -16 -15 -12 0 14 41 76
50 76 8 0 48 67 110 185 98 185 214 404 235 440 59 104 136 266 130 275 -3 5
0 10 7 10 7 0 35 42 61 93 27 50 39 81 27 67 -12 -15 -3 12 25 68 25 50 51 92
58 91 9 0 9 -2 0 -6 -10 -3 -10 -7 0 -18 7 -7 15 -11 19 -9 3 2 4 -6 1 -18 -3
-16 -2 -19 4 -10 7 9 13 6 22 -14 11 -25 11 -26 -4 -14 -9 7 5 -28 30 -78 28
-56 51 -90 57 -86 7 4 8 2 4 -4 -7 -11 60 -145 195 -395 33 -59 59 -110 59
-112 0 -2 14 -28 31 -57 17 -29 61 -109 96 -178 71 -134 93 -171 93 -153 0 7
-4 15 -10 18 -5 3 -10 11 -10 18 0 6 7 2 15 -10 8 -12 13 -27 10 -35 -6 -15
49 -108 64 -108 5 0 12 -7 15 -16 6 -14 4 -15 -9 -4 -14 12 -15 11 -4 -13 14
-31 25 -23 53 40 10 23 23 40 29 36 6 -3 7 -1 3 6 -10 16 24 101 40 101 8 0
14 5 14 11 0 5 -6 7 -12 3 -7 -4 -3 3 10 15 16 16 21 29 17 44 -4 14 -3 17 2
10 6 -8 18 10 38 55 15 37 43 100 62 140 18 41 33 75 33 77 0 3 11 28 24 57
53 118 97 219 144 333 182 437 221 533 227 556 5 20 -2 39 -28 80 -19 30 -44
82 -57 117 -12 34 -27 62 -32 62 -5 0 -7 4 -4 9 9 13 -5 131 -15 126 -4 -3 -9
0 -11 6 -4 12 -58 -106 -117 -253 -17 -42 -51 -119 -75 -172 -24 -52 -47 -105
-51 -118 -4 -13 -40 -99 -80 -193 -40 -93 -91 -215 -115 -270 -23 -55 -47
-106 -55 -113 -14 -16 -20 -7 -100 143 -26 50 -60 113 -75 140 -15 28 -64 119
-110 203 -45 83 -84 152 -86 152 -3 0 0 -10 7 -21 8 -16 8 -20 0 -14 -19 11
-82 145 -75 157 5 7 2 8 -6 3 -10 -6 -12 -4 -7 9 4 9 3 15 -2 12 -5 -3 -18 11
-29 32 -11 20 -67 127 -126 237 -58 110 -108 205 -110 210 -5 15 -9 9 -70
-110 -53 -105 -78 -152 -210 -398 -32 -59 -61 -105 -66 -102 -4 3 -6 -3 -4
-12 2 -10 -5 -29 -17 -43 -20 -24 -20 -24 -9 -2 6 13 10 25 8 27 -2 2 -79
-136 -170 -308 -92 -172 -173 -313 -181 -315 -15 -3 -35 37 -157 328 -45 107
-138 328 -207 490 -69 162 -131 309 -138 325 -7 17 -18 44 -25 62 -7 18 -17
36 -24 41 -6 5 -210 12 -454 15 -380 5 -444 4 -449 -9z m2349 -621 c97 -185
174 -343 171 -351 -4 -9 -22 16 -49 63 -23 43 -40 85 -36 93 3 10 1 13 -6 8
-12 -7 -16 5 -13 33 2 7 -2 10 -7 7 -5 -3 -61 91 -123 209 -63 118 -116 214
-119 215 -3 0 -44 -76 -93 -168 -148 -283 -171 -323 -179 -308 -4 8 19 63 60
142 38 71 99 189 137 262 38 72 71 132 75 132 3 0 85 -152 182 -337z m-464
-237 c-8 -6 -13 -17 -10 -25 3 -9 0 -11 -8 -6 -9 5 -11 4 -6 -3 8 -13 -23 -72
-37 -72 -4 0 -6 -3 -3 -8 2 -4 -1 -18 -8 -31 -11 -19 -14 -20 -19 -8 -8 21 70
164 90 164 14 0 14 -2 1 -11z m366 -2 c3 -8 2 -12 -4 -9 -6 3 -10 10 -10 16 0
14 7 11 14 -7z m-13 -962 c37 -70 99 -189 138 -264 71 -137 79 -158 61 -158
-5 0 -6 7 -3 17 4 11 3 14 -5 9 -8 -5 -10 -1 -5 10 4 12 3 15 -5 10 -12 -7
-16 5 -13 33 2 7 -2 10 -8 6 -7 -4 -8 0 -4 11 4 11 3 15 -5 10 -10 -6 -106
159 -183 317 -18 37 -36 67 -39 67 -3 0 -29 -46 -57 -103 -61 -118 -196 -363
-207 -374 -12 -12 1 39 20 79 9 20 22 34 27 31 6 -3 7 -1 3 5 -6 10 202 422
214 422 3 0 35 -58 71 -128z m-902 68 c11 -24 11 -24 -3 -6 -9 11 -16 24 -16
30 0 12 5 7 19 -24z m-345 -154 c-4 -11 -2 -16 4 -12 12 7 23 -18 27 -64 3
-23 1 -29 -5 -20 -5 8 -7 23 -4 34 4 11 2 16 -4 12 -12 -7 -42 63 -34 82 8 21
23 -9 16 -32z m2376 15 c0 -9 -20 -37 -20 -29 0 3 -2 13 -5 21 -4 8 0 14 10
14 8 0 15 -3 15 -6z m-26 -37 c3 -8 2 -12 -4 -9 -6 3 -10 10 -10 16 0 14 7 11
14 -7z m-9 -43 c-3 -6 -11 -8 -17 -5 -6 4 -5 9 3 15 16 10 23 4 14 -10z
m-2242 -163 c0 -15 4 -25 8 -23 3 3 23 -32 42 -78 61 -142 76 -183 68 -195 -4
-7 -34 52 -70 134 -34 80 -60 148 -57 152 3 3 -2 14 -11 25 -10 12 -12 17 -4
12 9 -5 12 -3 9 6 -3 8 -11 13 -18 11 -8 -2 -10 3 -7 13 4 8 2 15 -4 15 -6 0
-8 9 -4 21 5 14 4 19 -4 15 -7 -5 -8 -1 -4 10 8 22 55 -77 56 -118z m2151 -56
c-4 -12 -11 -19 -17 -15 -6 3 -7 1 -3 -5 10 -16 -105 -283 -117 -275 -6 4 -8
0 -4 -10 4 -10 -17 -72 -50 -149 -62 -148 -67 -157 -69 -123 -1 15 2 22 9 18
6 -4 8 0 4 9 -7 20 57 170 68 160 5 -4 5 -2 2 5 -10 16 153 404 166 396 7 -4
8 1 3 13 -5 13 -4 16 3 9 6 -6 8 -20 5 -33z m-1369 -91 c3 -5 2 -12 -3 -15 -5
-3 -9 1 -9 9 0 17 3 19 12 6z m-28 -67 l-16 -29 3 30 c2 17 4 34 5 40 0 5 6 4
12 -2 8 -8 7 -19 -4 -39z m663 16 c6 -11 7 -20 3 -20 -4 0 -1 -4 7 -10 8 -5
11 -13 6 -17 -11 -12 -36 26 -29 45 4 10 2 13 -5 8 -7 -4 -12 -2 -12 3 0 18
19 12 30 -9z m-1237 -227 c1 -11 4 -20 7 -18 3 2 24 -42 48 -97 32 -77 40
-104 32 -116 -9 -14 -10 -12 -4 7 4 14 2 21 -4 17 -15 -9 -143 298 -134 323 6
17 53 -82 55 -116z m113 -270 c-3 -4 -6 -1 -6 6 0 7 -4 9 -10 6 -6 -4 -7 1 -3
11 6 15 7 15 15 -1 6 -9 7 -19 4 -22z m1588 21 c3 -8 2 -12 -4 -9 -6 3 -10 10
-10 16 0 14 7 11 14 -7z m-12 -50 c-9 -16 -10 -14 -9 8 1 15 6 23 11 18 4 -4
4 -16 -2 -26z m-1552 -47 c-8 -9 -9 -7 -4 7 5 13 4 17 -4 12 -13 -8 -17 6 -5
18 4 3 11 -1 16 -10 6 -10 5 -20 -3 -27z m1534 27 c4 -10 2 -13 -6 -8 -8 5 -9
2 -5 -9 8 -22 -2 -49 -16 -40 -7 4 -8 0 -3 -13 5 -14 4 -16 -4 -8 -13 13 -2
46 13 37 6 -4 8 0 4 10 -6 15 0 47 8 47 2 0 6 -7 9 -16z m-1521 -49 c-3 -9 -8
-14 -10 -11 -3 3 -2 9 2 15 9 16 15 13 8 -4z"/>
<path d="M6775 4859 c-4 -6 -5 -12 -2 -15 2 -3 7 2 10 11 7 17 1 20 -8 4z"/>
<path d="M6675 4669 c-4 -6 -5 -12 -2 -15 2 -3 7 2 10 11 7 17 1 20 -8 4z"/>
<path d="M8260 5551 c0 -5 5 -13 10 -16 6 -3 10 -2 10 4 0 5 -4 13 -10 16 -5
3 -10 2 -10 -4z"/>
<path d="M7027 4894 c3 -7 9 -14 14 -14 14 0 10 17 -5 23 -10 4 -13 1 -9 -9z"/>
<path d="M5108 4368 c-26 -18 -108 -78 -182 -133 -75 -55 -151 -111 -170 -125
-174 -128 -246 -180 -289 -210 -28 -19 -50 -39 -50 -45 1 -5 122 -91 270 -190
147 -100 347 -234 443 -300 451 -306 542 -366 546 -362 2 2 -16 55 -41 118
-24 63 -68 175 -97 249 l-53 135 -118 80 c-223 151 -360 250 -371 267 -14 24
2 39 154 148 72 51 130 98 130 104 0 21 -107 290 -116 293 -5 2 -30 -12 -56
-29z m-388 -490 c-12 -10 -19 -23 -15 -30 4 -7 -1 -4 -9 6 -16 19 -16 19 -16
1 0 -15 -2 -17 -12 -6 -11 10 -8 16 10 29 13 10 32 18 43 18 21 0 21 -1 -1
-18z m53 -72 c25 -19 3 -31 -23 -13 -11 8 -17 17 -13 20 9 10 15 8 36 -7z m52
-35 c3 -5 0 -13 -6 -17 -8 -5 -9 -3 -4 6 6 10 4 12 -8 7 -10 -3 -17 -2 -17 3
0 13 27 13 35 1z"/>
<path d="M8899 4373 c-5 -16 -30 -81 -55 -146 -24 -65 -42 -122 -39 -127 3 -5
49 -42 103 -81 53 -40 118 -88 144 -107 61 -46 58 -57 -38 -122 -464 -316
-412 -264 -506 -510 -33 -85 -71 -181 -85 -213 -14 -31 -23 -60 -20 -63 5 -6
246 152 572 376 347 238 423 289 558 379 75 50 137 95 137 99 0 4 -13 15 -29
25 -16 9 -79 54 -140 100 -319 237 -570 417 -582 417 -5 0 -14 -12 -20 -27z
m361 -395 c0 -10 -39 -1 -56 13 -8 6 -11 15 -8 20 6 10 64 -20 64 -33z m85
-69 c0 -8 8 -13 17 -11 9 1 19 -1 22 -6 10 -17 -29 -7 -58 14 -28 20 -28 21
-5 19 13 -1 24 -8 24 -16z m85 -48 c-1 -14 -103 -72 -112 -63 -9 9 54 56 77
57 6 1 9 6 8 13 -2 6 4 9 12 6 8 -4 15 -9 15 -13z m-116 -70 c7 -11 -55 -52
-67 -44 -11 7 12 33 29 33 8 0 14 5 14 10 0 12 17 13 24 1z"/>
<path d="M9200 4006 c0 -3 9 -10 20 -16 11 -6 20 -8 20 -6 0 3 -9 10 -20 16
-11 6 -20 8 -20 6z"/>
<path d="M7787 3681 c-4 -17 -3 -21 5 -13 5 5 8 16 6 23 -3 8 -7 3 -11 -10z"/>
</g>
</svg>
